/* XPM */
static char *_71dcae9aeda4b7780750c3a276ebafcotWaL8j67ZaFOsC4[] = {
/* columns rows colors chars-per-pixel */
"48 48 109 2 ",
"   c None",
".  c #010101",
"X  c #0B0502",
"o  c #070808",
"O  c #0B0B0B",
"+  c #130A04",
"@  c #1A0D05",
"#  c #1E1007",
"$  c #0F1010",
"%  c #131414",
"&  c #171818",
"*  c #1B1D1D",
"=  c #221107",
"-  c #271408",
";  c #291508",
":  c #361B0B",
">  c #391E0C",
",  c #1E2020",
"<  c #222525",
"1  c #262929",
"2  c #2B2E2E",
"3  c #2E3131",
"4  c #313434",
"5  c #353939",
"6  c #393D3D",
"7  c #43230E",
"8  c #4B260F",
"9  c #522A11",
"0  c #5A2F12",
"q  c #5C3013",
"w  c #613214",
"e  c #6E3917",
"r  c #793E18",
"t  c #7D4019",
"y  c #3D4242",
"u  c #414545",
"i  c #454A4A",
"p  c #494E4E",
"a  c #4D5252",
"s  c #515656",
"d  c #545A5A",
"f  c #595F5F",
"g  c #5C6262",
"h  c #606666",
"j  c #646B6B",
"k  c #686F6F",
"l  c #6C7474",
"z  c #737C7C",
"x  c #82431B",
"c  c #924B1E",
"v  c #9F511F",
"b  c #974E20",
"n  c #984E20",
"m  c #9C5120",
"M  c #A35421",
"N  c #AA5722",
"B  c #AD5923",
"V  c #B35B24",
"C  c #BB5F25",
"Z  c #BE6126",
"A  c #C06227",
"S  c #C56528",
"D  c #7B8383",
"F  c #838C8C",
"G  c #879090",
"H  c #8B9595",
"J  c #939D9D",
"K  c #96A1A1",
"L  c #9BA5A5",
"P  c #9EA9A9",
"I  c #A2AEAE",
"U  c #A7B3B3",
"Y  c #A4B0B0",
"T  c #A9B4B4",
"R  c #A9B5B5",
"E  c #ABB7B7",
"W  c #AEBABA",
"Q  c #B0BDBD",
"!  c #B1BDBD",
"~  c #B2BEBE",
"^  c #B3BFBF",
"/  c #B4C0C0",
"(  c #B6C3C3",
")  c #B9C6C6",
"_  c #BAC7C7",
"`  c #BBC7C7",
"'  c #BCC9C9",
"]  c #BDCACA",
"[  c #C1CECE",
"{  c #C1CFCF",
"}  c #C2CFCF",
"|  c #C3D0D0",
" . c #C6D3D3",
".. c #C6D4D4",
"X. c #C7D5D5",
"o. c #C9D7D7",
"O. c #CAD7D7",
"+. c #CCDADA",
"@. c #CDDBDB",
"#. c #CEDCDC",
"$. c #CEDDDD",
"%. c #CFDEDE",
"&. c #D0DDDD",
"*. c #D0DFDF",
"=. c #D1E0E0",
"-. c #D2E1E1",
";. c #D3E2E2",
":. c #D5E4E4",
">. c #D6E5E5",
/* pixels */
"                                                                                                ",
"                                                                                                ",
"                                                . . .                                           ",
"                                          . . % y l 5 .                                         ",
"                      .           . . . . O ] >.>.>.i . .                                       ",
"                    . = .     . $ . p O , H >.>.>.+.O . .                     . .               ",
"                    . S . . . 6 z 5 3 f & ;.>.>.>.H . . .             . . . 3 D F .             ",
"                    . S 8 & O P O k 2 D a >.>.>.>.y . .         . . . . % < >.>.| .             ",
"                    . S r . p 6 g & K , F >.>.>...O & . . . . 2 . . . . . O >.>.>..             ",
"                    . S M . z 1 6 g p . E >.>.>.D * s z 2 o.>.$.. . $ . . . | >.>.6 .           ",
"                    . S B . & u 2 P o . d y < % . O . % D >.>.;.. , $ . O . L / k % .           ",
"                    . S C . 4 $ l , . % O 6 o O o . O . ) >.>.>.. O . . . O % . . % .           ",
"                    . S S . 2 . 3 F G O & 2 < . 3 & & o >.>.>.>.. . . . . & . 2 . . .           ",
"                    . S S . 6 T >.>.z . 1 , $ O h % L * >.>.>.>.. . % k ) J . 1 . . .           ",
"                    . S S . ` >.>.>.k u O % s . K O Y , >.] l * . D $.>.>./ . . . . . .         ",
"                    . S S . T >.>.:.g . O 3 1 . / y , O < $ . . . ) >.>.>.*.. . . o . .         ",
"                    . S S X J >.>.>.a < O 3 u . +.;.F % O g . O . W >.>.>.>.* $ . < . .         ",
"                    . S S + z >.>.o.3 & . . O . g >.( . 1 5 . . . I >.>.>.>.u . . < . .         ",
"                    . S S - g W i o . g E $.*.. * Y { . < O O a . J >.>.;.L 3 . 2 l ^ .         ",
"                    . S S > % . s . . K >.>.>.. < a $.. % & . . . F / g O . . u >.>.>.O         ",
"                    . S S 9 . % a O . J >.>.>.. . < >.. . % O . O % % O 3 O . < >.>.>.1         ",
"                    . S S e . 5 O a . H >.>.>.% % . +.% g O . . O . d . . . . . $.>.>.p .       ",
"                    . S S t . 5 h * . F >.>.>.y . O < O % . 6 J J . & . . . 2 & ^ >.>.z .       ",
"                    . S S c . * z . . D >.>.>.F O 2 , . l | >.>.^ . % . . . 2 . J >.>.L .       ",
"                    . C S v . 2 p 1 . H >.>.>.| . . O 1 D >.>.>.$.. % . . % < . F >.>.{ .       ",
"                    . N S N . *.O 3 . 1 O . . % . d 3 < g >.>.>.>.* 5 . . 5 . . l >.>.o..       ",
"                    . c S V . J . . .           . % a . 6 >.>.>.>.i y . . 5 . . f i O . .       ",
"                    . r S B . . .               . % 2 p O | >.>.>.z d E . $ . . . .             ",
"                    . w S N .                   . 5 * y . l >.>.>.G O % . .                     ",
"                    . 8 S N .                   % i f O . H k < . . .                           ",
"                      : S M .                   . . . . . . .                                   ",
"                      - S M .                                                                   ",
"                      @ S m .                                                                   ",
"                      # S b .                                                                   ",
"                      ; S c .                                                                   ",
"                      : S c .                                                                   ",
"                      7 S n .                                                                   ",
"                    . 9 S c .                                                                   ",
"                    . 0 S x .                                                                   ",
"                    . w S 0 .                                                                   ",
"                    . 7 S ;                                                                     ",
"                      = Z .                                                                     ",
"                      . - .                                                                     ",
"                        .                                                                       ",
"                                                                                                ",
"                                                                                                ",
"                                                                                                ",
"                                                                                                "
};
