/* XPM */
static char *c85ae7a34fc44fc2ec6f310f7ac27e98xjsDp14p3lJejV2w[] = {
/* columns rows colors chars-per-pixel */
"48 48 180 2 ",
"   c None",
".  c #030202",
"X  c #0B0504",
"o  c #0C0806",
"O  c #0D0B09",
"+  c #070809",
"@  c #120604",
"#  c #130906",
"$  c #1D0A05",
"%  c #120E0A",
"&  c #1D0E0C",
"*  c #16100D",
"=  c #1C130E",
"-  c #0F1010",
";  c #131313",
":  c #1C1512",
">  c #1E1816",
",  c #12171C",
"<  c #181A1C",
"1  c #220B06",
"2  c #220D09",
"3  c #24120D",
"4  c #2A130C",
"5  c #3B130A",
"6  c #37190D",
"7  c #231711",
"8  c #241A13",
"9  c #2B1D13",
"0  c #221D19",
"q  c #331510",
"w  c #351B13",
"e  c #371C15",
"r  c #2D221B",
"t  c #2B201A",
"y  c #342215",
"u  c #32251D",
"i  c #3D2918",
"p  c #37271B",
"a  c #161D24",
"s  c #1F2223",
"d  c #16222F",
"f  c #1F2B39",
"g  c #2C2925",
"h  c #272827",
"j  c #342A22",
"k  c #3B2B22",
"l  c #342F2B",
"z  c #3F3025",
"x  c #2D3131",
"c  c #373836",
"v  c #4F180D",
"b  c #45150C",
"n  c #561B0E",
"m  c #5F1E0E",
"M  c #4E1711",
"N  c #4F1A13",
"B  c #421912",
"V  c #551A13",
"C  c #681E15",
"Z  c #422513",
"A  c #4C2912",
"S  c #432C1A",
"D  c #4D2118",
"F  c #592717",
"G  c #4E341F",
"H  c #5E3114",
"J  c #47250F",
"K  c #6E2211",
"L  c #622213",
"P  c #752214",
"I  c #7A2414",
"U  c #742219",
"Y  c #673617",
"T  c #423226",
"R  c #45352A",
"E  c #45392F",
"W  c #4D3A2E",
"Q  c #49372B",
"!  c #513620",
"~  c #513E31",
"^  c #7E411A",
"/  c #564234",
"(  c #5F4A3C",
")  c #5A4435",
"_  c #654D3C",
"`  c #6A513E",
"'  c #3E4343",
"]  c #27405C",
"[  c #2B4665",
"{  c #4A4E4D",
"}  c #484442",
"|  c #565C5C",
" . c #595E5D",
".. c #6E5442",
"X. c #765A46",
"o. c #785A47",
"O. c #7C5E4A",
"+. c #735845",
"@. c #7E604C",
"#. c #766557",
"$. c #5C6363",
"%. c #656B6B",
"&. c #697070",
"*. c #757D7D",
"=. c #882718",
"-. c #942D16",
";. c #9A2E17",
":. c #9B2A1D",
">. c #92271B",
",. c #9D3018",
"<. c #A23118",
"1. c #A83318",
"2. c #B2361A",
"3. c #BC391C",
"4. c #A62D1F",
"5. c #AC2E20",
"6. c #B02F21",
"7. c #BA3223",
"8. c #C23A1C",
"9. c #CB3D1E",
"0. c #D13F1F",
"q. c #C53525",
"w. c #CD3726",
"e. c #CE3827",
"r. c #D03827",
"t. c #86451B",
"y. c #A65623",
"u. c #B05A24",
"i. c #D5401F",
"p. c #DC4220",
"a. c #E64522",
"s. c #EF4823",
"d. c #EA4723",
"f. c #C46528",
"g. c #82634E",
"h. c #876650",
"j. c #8A6952",
"k. c #916E56",
"l. c #967258",
"z. c #9C765C",
"x. c #9E785D",
"c. c #A17A5F",
"v. c #A47D61",
"b. c #A97F64",
"n. c #AC8265",
"m. c #B08568",
"M. c #B5896B",
"N. c #B98C6D",
"B. c #BD8F70",
"V. c #BF9171",
"C. c #C49474",
"Z. c #CD9B79",
"A. c #CA9977",
"S. c #D19E7B",
"D. c #D4A17D",
"F. c #4A79AF",
"G. c #798281",
"H. c #828B8B",
"J. c #8C9696",
"K. c #929C9C",
"L. c #96A1A1",
"P. c #9AA5A5",
"I. c #9FABAB",
"U. c #A1ADAD",
"Y. c #A8B5B5",
"T. c #DAA682",
"R. c #DFA984",
"E. c #E2AC86",
"W. c #E6AF89",
"Q. c #ECB38C",
"!. c #F1B78F",
"~. c #F2B88F",
"^. c #F5BA91",
"/. c #FCBF95",
"(. c #BCCACA",
"). c #B9C6C6",
"_. c #C2CFCF",
"`. c #CAD8D8",
"'. c #D0DFDF",
"]. c #D5E4E4",
/* pixels */
"                                                                                                ",
"                                                                                                ",
"                                            @ @ X @ @ @                                         ",
"                                      @ X 5 -.8.0.0.3.;.v X @                                   ",
"                                    X n 0.s.s.s.s.s.s.s.s.a.=.@ X                               ",
"                                X @ 3.s.s.a.-.F D L 2.s.s.s.s.a.K X                             ",
"                              X 5 p.s.s.2.= } H.J.*.g q 8.s.s.s.s.2.@                           ",
"                            X K s.s.s.3.& I.].].].].].H.* -.s.s.s.s.0.1 X                       ",
"                          X ;.s.s.s.s.w K.].$.L.].].).G.).; 3.s.s.s.s.i.1                       ",
"                        @ 3.s.s.s.d.i.> ].Y.% s ].].' O '.G.F s.s.s.s.s.0.@                     ",
"                    X $ 0.s.s.s.s.s.<.} ].{ n.g L.K.h x I.U.e s.s.s.s.s.s.2.X                   ",
"                    1 p.s.s.s.s.s.s.<.} _.; `.L.t , I.*.| Y.e s.s.s.s.s.s.s.m X                 ",
"                  X 9.s.s.s.s.s.s.s.3.t *.| ].].%.| ].(.- J.N s.s.s.s.s.s.s.0.X                 ",
"                X P s.s.s.s.s.s.s.s.s.= ; &.H.F.*.H.L.).' < =.s.s.s.s.s.s.s.s.n                 ",
"                X i.s.s.s.s.s.s.s.3.n X & e M M M M q & . . -.s.s.s.s.s.s.s.s.3.X               ",
"                b s.s.s.s.s.s.a.n # I 7.r.r.w.r.r.w.r.r.7.I 2 1 1.s.s.s.s.s.s.s.$               ",
"              X I s.s.s.s.s.r.1 N q.r.r.r.r.r.r.r.r.w.e.e.r.r.>.2 5 r.s.s.s.s.s.P X             ",
"              @ ;.s.s.s.s.i.2 U r.r.r.r.r.r.r.w.7.5.5.5.7.w.r.r.r.C X 2.s.s.s.s.i.X             ",
"              @ 2.s.s.s.i.4 U r.r.q.>.C N q @ . & 8 e 9 : . : N >.r.:.@ -.s.s.s.s.X             ",
"              # <.s.s.a.4 P r.>.B o S o.z.C.Q././././././.^.T.l.e q 6.5.$ ,.s.s.s.5             ",
"              # -.s.s.m N ;.3 p v.!./././././././././././.Z.j.O.N.l.% >.4.# 8.s.s.M             ",
"              . K s.,.$ V = n.^.z.T % > _ E./././././.!.) 7 +.O.u E C.= P =.4 d.s.b             ",
"                1 i.# 2 8 W.E.u T M.W.T.o.j /././././.T ~ ^./././.@.E.T.9 C b I s.1             ",
"                X 5 . 3 t /.E.n./././././.Q./././././.m././././././././.T.. 4 o 8.X             ",
"                X . o y.% /./././.C.0 < o.^./././././.!.+.j _ !././././.E.% J . @ X             ",
"          % % * . . Y f.X ^././.E.; L.(.c h././././.!.j { U.{ O././././.D.4 f.J . %             ",
"          t /./.Q.9 ^ f.o Q././.j. .].L.{ - !./././.h.+ H.].L.E /./././.A.y f.A r l.0           ",
"          W /././._ Y f.X ^././...*.`.+ ] + C././.^.- [ , U.P.E /./././.m.Z f.% A./.T.o         ",
"          W /././.g.H y.7 /././.h.%.(., F.d R _ ~ ~ , F.f K.G..././././.l.A u.+ /././.X         ",
"          u /././.l.A Y ` /././.N.x ].; a g j.v.b.l.l , s ].' z././././.n.Z t.8 /./.Q..         ",
"          o /././.n.6 & S././././.0 U.x #././././././.o.g L.< ^././.M./ Q.= 6 W /./.C.O         ",
"          O D././.C.X T /.b.g././.n.O g /././././././././ + B./.~.X.o * /.@.. O././...X         ",
"          O O././.Q.o M./.... z N.W.O..././././././././.B.u C.+.% 8 S * /.Z.. v./.R.o           ",
"            & Q././.r V./.h.9 y = O X k /./././././././.D.X = t S G i p /.Q.. A./.E o           ",
"            % W ^./.W z./.D.O G ! ! G * n./././././././.A.= G G G G 7 @./.S.. ~.k.O             ",
"              O O T * ` /./.Q t ! ! ! S O N././././././.W y G G G 9 * W./.z.o X.o               ",
"                      0 /./.D.% S ! ! G S O ) n.N.M.h.8 = G G G 9 z D./././ o O                 ",
"                      % S././.z.% y i 9 i G y 0 : 9 y i G G G G # D././.Q.X                     ",
"                      : ` /././.n.R p _ o S ! ! G G G G i 8 9 % ` /././.+.*                     ",
"                        o D././././././.v.% 8 8 = t i 9 * l.k.C./././.c.O                       ",
"                          t ^././././././.Q.M.m.C...T +.R././././.Q.` O                         ",
"                          % u E././././././././././././././././.n.* O                           ",
"                              . z z.W./././././././././././.D.k *                               ",
"                                  o X r v.^././././././.R._ O                                   ",
"                                        * * g.Z.Q.T.n.~ o O                                     ",
"                                            % % o O %                                           ",
"                                                                                                ",
"                                                                                                "
};
