/* XPM */
static char *d33aeb7e6ed54cb982fb4a4a2c3112b0MGSNc6qvBYmyBJkh[] = {
/* columns rows colors chars-per-pixel */
"48 48 148 2 ",
"   c None",
".  c #030202",
"X  c #0B0403",
"o  c #0B0B0B",
"O  c #120703",
"+  c #170805",
"@  c #1A0805",
"#  c #110C0B",
"$  c #190C0A",
"%  c #16100F",
"&  c #1D110E",
"*  c #131313",
"=  c #1B1413",
"-  c #1C1C1C",
";  c #2C0D08",
":  c #21120E",
">  c #361108",
",  c #241411",
"<  c #251B19",
"1  c #331A14",
"2  c #3A1B14",
"3  c #381E18",
"4  c #27201F",
"5  c #242424",
"6  c #2C2422",
"7  c #2D2827",
"8  c #282828",
"9  c #392F2D",
"0  c #37302E",
"q  c #343434",
"w  c #3D3432",
"e  c #3C3C3C",
"r  c #45150B",
"t  c #48160C",
"y  c #461D14",
"u  c #4F1F14",
"i  c #5C1F11",
"p  c #681E0F",
"a  c #631E10",
"s  c #4B2117",
"d  c #572317",
"f  c #5D2216",
"g  c #552318",
"h  c #5D261A",
"j  c #632416",
"k  c #682010",
"l  c #712514",
"z  c #7C2614",
"x  c #7E2916",
"c  c #772A19",
"v  c #413836",
"b  c #423B39",
"n  c #46403E",
"m  c #444444",
"M  c #494544",
"N  c #4B4B4B",
"B  c #56504F",
"V  c #58514F",
"C  c gray32",
"Z  c #5A5352",
"A  c #5E5C5C",
"S  c #635D5C",
"D  c #656565",
"F  c #696766",
"G  c #6E6866",
"H  c #6A6A6A",
"J  c #747474",
"K  c #787473",
"L  c #7A7877",
"P  c gray49",
"I  c #822713",
"U  c #852915",
"Y  c #8D2B15",
"T  c #962D17",
"R  c #9A2F16",
"E  c #9E3017",
"W  c #A53218",
"Q  c #AB3419",
"!  c #B2361A",
"~  c #BC391B",
"^  c #C23A1C",
"/  c #CE3E1E",
"(  c #D13F1F",
")  c #D5401F",
"_  c #DD4321",
"`  c #E44521",
"'  c #EB4723",
"]  c #EF4823",
"[  c #807F7E",
"{  c #838383",
"}  c #898584",
"|  c #8B8A8A",
" . c #918F8E",
".. c #91908F",
"X. c #939393",
"o. c gray61",
"O. c #A4A4A4",
"+. c #ACACAC",
"@. c #B4B4B4",
"#. c #BCBCBC",
"$. c #C0C0C0",
"%. c #C1C1C1",
"&. c #C3C3C3",
"*. c #C5C5C5",
"=. c gray78",
"-. c #C0C0C0",
";. c #C8C8C8",
":. c gray80",
">. c #CDCDCD",
",. c #CECECE",
"<. c gray81",
"1. c #D2D2D2",
"2. c #D5D5D5",
"3. c gray84",
"4. c #D0D0D0",
"5. c gray85",
"6. c #DADADA",
"7. c gray86",
"8. c #DDDDDD",
"9. c gray87",
"0. c #E1E1E1",
"q. c #E2E2E2",
"w. c gray90",
"e. c #E6E6E6",
"r. c gray91",
"t. c #EAEAEA",
"y. c gray92",
"u. c #ECECEC",
"i. c #EEEEEE",
"p. c #EFEFEF",
"a. c gray92",
"s. c gray94",
"d. c #F1F1F1",
"f. c gray95",
"g. c #F3F3F3",
"h. c #F4F4F4",
"j. c gray96",
"k. c #F6F6F6",
"l. c gray97",
"z. c #F4F4F4",
"x. c #F9F9F9",
"c. c gray98",
"v. c #FBFBFB",
"b. c gray99",
"n. c #FDFDFD",
"m. c #FEFEFE",
"M. c white",
"N. c #FEFEFE",
/* pixels */
"                                                                                                ",
"                                                                                                ",
"                                                                                                ",
"                                                                                                ",
"                                                                                                ",
"                                                                                                ",
"                                                                                                ",
"                                                                                                ",
"                                                                                                ",
"                                                                                                ",
"                                                                                                ",
"                                                                                - 8             ",
"      o . o o       o . . *     o o o . . *   o # o o o o o o 8   o . . o   o N P { N *         ",
"      o N.N.:.* * * 1.N.N.8     e N.N.N.N.e   o :.i.i.e.i.k.0.H 5 . i.d.. - 5.N.N.N.N.2.5       ",
"      q N.x.x.:.5 #.N.N.N.D   o O.N.<.8.N.X.8 o q.N.* . o P N.x.o . a.t.. %.N.+.- - +.N.-.-     ",
"    . J N.{ m d.N.0.q { N.X.- o z.x.5 8 N.t.o . t.v.o     * N.@.* . t.t.. t.N.e . . m N.i.o     ",
"    o +.N.F . - o.o . q N.@.. N N.@.* o %.N.m . d.g.o o o { N.8   . k.k.. +.N.@.- - +.N.O.*     ",
"    o 9.N.m     o     * N.5.. +.N.C     m N.o.. N.i.o   o ;.N.#.o . N.N.. o *.N.N.N.N.:.o       ",
"    . . . .           o o . . o o o     . . . . . . o     o . . . . o o .   o 7 J { m o         ",
"                                                                                . .             ",
"                                                                                                ",
"            . . o   o . . . .     o o o o o q   . . o o o o o *     o . . o o o . . .           ",
"          . { N.F o N N.z.q *   o #.N.N.N.1.*   m N.s.i.i.i.N.<.8 . H N.N.N.N.N.z.i.D           ",
"          o | N...N x.d.e *     o N.N.@.N.N.- . C N.{ . . 8 e.N.{ o o . . X.N.@.. o .           ",
"          o | N.N.N.N.X.o       F N.@.. <.N.J . A N.F     . O.k.8       . { N.X.8               ",
"          o | N.X.F v.v.C #   o ;.N.N o q N.%.. F N.D o o 5 w.O.o       . P N.| 5               ",
"            L N.J . N l.v.N o * N.8.o   o 5.x.* J N.A   o F N.N.H -     . H d.| 5               ",
"            o . .   * X o o . . . . *   . . . o . . .     . o o o o o     o o . *               ",
"                                                                                                ",
"                                                                                                ",
"      . X . X X X + + + X X . . X O + + @ + + O O O X . . . X O + @ X X . . X O + + X O X X X . ",
"      > ` _ _ ( / ^ ~ ^ ( _ ' ] ' W I U ^ ] ] ] ] ] ] ] ] ` ) ^ ! ! ( _ ] ] ] ] ] ] ] ] ] ] ~ . ",
"    X U $ . . . . . . . . X ` Q : w K F = h ' ] T . . . l ] Y o # X l W X . . . . . # d _ ] a . ",
"    X Y v N.N.N.N.N.N.N.@.2 ~ = @.N.N.N.k.M c ] 2 @.N.4 Q ] 1 #.N.9 Q s +.N.v.i.N.N.p.D j ] +   ",
"    @ l . . . -.N.Z . . . T , @.x.A = } N.<.1 ( = N.2.: ] / = x.5.& ) # k.<.. . # @.N.*.1 ( .   ",
"    p ] ] ) o z.t.# ) ] ] ~ 6 N.O.2 Q , N.;.3 U S N.%.1 _ u K N.B c z Z N.G U ` y  .i.b U I .   ",
"  O ! ] ] Y Z N.| f ] ] ] W m N.1.# o  .N.S c z L N.x.w o S l.-.& ) : %.x.% + o Z k.6 i ' ;     ",
"  X ' ] ] 2 +.N.6 ! ] ] ] ( # t.N.d.g.N...: ` ! 6 k.N.N.N.N.#.% ! ! 4 N.+.y Y b N.N.X.1 _ .     ",
"  t ] ] ' X . . : ] ] ] ] ] x < X.@.X.9 1 ( ] ] f 6 X.O.[ 0 & ! ] l X # . E ] 1 . . . . p .     ",
"X T ] ] ] ] ] ] ] ] ] ] ] ] ] ! i y j W ] ] ] ] ] Q j d l E _ ] ] ] ' ` ] ] ] ] ] ] ] ] t       ",
". . . . . . . . . . . . X X X X X X X X X . X . . . . . . . . . . . . . . X X X . . . . .       ",
"                                                                                                ",
"                                                                                                ",
"                                                                                                ",
"                                                                                                ",
"                                                                                                ",
"                                                                                                ",
"                                                                                                "
};
