/* XPM */
static char *a379722654e448def894afe2150417fdyv4kQN3elsULImQZ[] = {
/* columns rows colors chars-per-pixel */
"48 48 144 2 ",
"   c None",
".  c #010202",
"X  c #010708",
"o  c #010B0B",
"O  c #0B0C0C",
"+  c #031314",
"@  c #0F1010",
"#  c #031718",
"$  c #031D1D",
"%  c #131414",
"&  c #1A1C1C",
"*  c #041F21",
"=  c #042424",
"-  c #042B2C",
";  c #1E2020",
":  c #052F31",
">  c #053434",
",  c #053738",
"<  c #07393A",
"1  c #202222",
"2  c #262929",
"3  c #313434",
"4  c #363B3B",
"5  c #3B3F3F",
"6  c #073F40",
"7  c #074142",
"8  c #084446",
"9  c #084B4C",
"0  c #084E51",
"q  c #095355",
"w  c #095A5C",
"e  c #3C4040",
"r  c #0A5E61",
"t  c #0A6264",
"y  c #0C6768",
"u  c #0D6B6D",
"i  c #0D7375",
"p  c #0D7779",
"a  c #0E7C7E",
"s  c #404545",
"d  c #4D5454",
"f  c #505555",
"g  c #545A5A",
"h  c #595E5E",
"j  c #5C6363",
"k  c #606666",
"l  c #666D6D",
"z  c #6E7676",
"x  c #777F7F",
"c  c #F26322",
"v  c #F06A2D",
"b  c #EF6F34",
"n  c #F06C30",
"m  c #EF7136",
"M  c #EF753C",
"N  c #EE7741",
"B  c #EC7B46",
"V  c #EC7E4B",
"C  c #EB8454",
"Z  c #EB8759",
"A  c #E98B5E",
"S  c #E88E63",
"D  c #E99167",
"F  c #E7966E",
"G  c #E89269",
"H  c #E79770",
"J  c #E69871",
"K  c #E69E7A",
"L  c #E5A17F",
"P  c #0D7E80",
"I  c #0E8284",
"U  c #0F8688",
"Y  c #0F8B8D",
"T  c #108B8D",
"R  c #0F8F93",
"E  c #0F9193",
"W  c #109295",
"Q  c #109599",
"!  c #119B9D",
"~  c #129EA1",
"^  c #12A2A5",
"/  c #11A6A8",
"(  c #13AAAD",
")  c #13ADB1",
"_  c #14B2B5",
"`  c #14B6B9",
"'  c #7C8585",
"]  c #818A8A",
"[  c #879090",
"{  c #8B9494",
"}  c #909A9A",
"|  c #A29F99",
" . c #97A0A0",
".. c #A2ACAC",
"X. c #A8AEAC",
"o. c #BDB3AA",
"O. c #A6B2B2",
"+. c #A8B2B2",
"@. c #B3BFBF",
"#. c #BBBFBB",
"$. c #E4A484",
"%. c #E3AA8C",
"&. c #E2AE93",
"*. c #E1B197",
"=. c #E1B49B",
"-. c #D7B8A6",
";. c #DFBBA6",
":. c #DEBEAB",
">. c #E0BAA4",
",. c #DDC1AE",
"<. c #CBC1B8",
"1. c #D7C4B6",
"2. c #DDC4B4",
"3. c #DCCABC",
"4. c #B4C1C1",
"5. c #B8C5C5",
"6. c #BCCACA",
"7. c #C5C9C5",
"8. c #CCC8C1",
"9. c #C1CFCF",
"0. c #D5CDC4",
"q. c #DBCEC3",
"w. c #CFD2CD",
"e. c #DAD6CE",
"r. c #C5D3D3",
"t. c #C8D7D7",
"y. c #CDD8D7",
"u. c #CEDCDC",
"i. c #D2D7D3",
"p. c #D9D7D0",
"a. c #D5D8D3",
"s. c #D8DBD6",
"d. c #D8DCD7",
"f. c #D8DAD5",
"g. c #D7DEDA",
"h. c #D5DEDB",
"j. c #D8DDD9",
"k. c #D3E0DF",
"l. c #D3E1E1",
"z. c #D7E2E1",
"x. c #D7E3E2",
"c. c #D6E4E3",
"v. c #D6E5E5",
"b. c #D6E5E5",
/* pixels */
"                                                                                                ",
"                                                                                                ",
"                                          . . . . . . .                                         ",
"                                  . . . = w a Q ! Y i 0 : . . .                                 ",
"                              . . 7 ~ ` ` ` ` ` ` ` ` ` ` ` ^ w X .                             ",
"                          . . y ` ` ` ` ` ` ` ` ` ` ` ` ` ` ` ` ` Y * .                         ",
"                        . 9 _ ` ` ` ` ` ` ` ` ` ` ` ` ` ` ` ` ` ` ` ` Y o .                     ",
"                    . X W ` ` ` ` ` ` ` ` ` ` ` ` ` ` ` ` ` ` ` ` ` ` ` ` w .                   ",
"                  . + _ ` ` ` ` ` ` ` ` ` ` ` ` ` ` ` ` ` ` ` ` ` ` ` ` ` ` E .                 ",
"                . $ _ ` ` ` ` ` ` ` ` ` _ i 7 - $ + $ , q U _ ` ` ` ` ` ` ` ` ( + .             ",
"                + _ ` ` ` ` ` ` ` ` ^ - . % e '  ...} l 3 @ . = R ` ` ` ` ` ` ` ) X .           ",
"              . ( ` ` ` ` ` ` ` ( - . d r.z.3.$.D C Z H *.p.t.l O # / ` ` ` ` ` ` ( X           ",
"            . Y ` ` ` ` ` ` ` a X 5 u.q.H b C N c c c c c c S q.l.h . U ` ` ` ` ` ` ~ .         ",
"            - ` ` ` ` ` ` ` > X X.q.C N =.j.v.D c c c c c c D m $.v. .X I ` ` ` ` ` ` t .       ",
"          . / ` ` ` ` ` ` = & y.K m >.c.v.v.c.S c c c c c v p.d.C D c.O.. ^ ` ` ` ` ` ` o       ",
"          - ` ` ` ` ` ` = ; a.C D d.v.v.v.v.v.A c c c c c G v.v.x.D F v.j $ ` ` ` ` ` ` i .     ",
"        . T ` ` ` ` ` t O i.B %.v.v.v.v.u.%.B M C C B c c =.v.v.v.z.C *.x.X Q ` ` ` ` ` ` .     ",
"        . ` ` ` ` ` ) . 4.A L v.v.v.v.>.m L <.' j j { w.&.N 2.v.v.v.e.m p.g > ` ` ` ` ` ` -     ",
"        - ` ` ` ` ` t 2 =.c c b C $.L V -.& . - 8 7 * . 5 0.M 2.v.v.c.$.$.5.. ` ` ` ` ` ` i .   ",
"      . r ` ` ` ` ` = x V c c c c c M #.. w ` ` ` ` ` ) - O 1.M z.v.v.e.M v.X / ` ` ` ` ` ! .   ",
"      . U ` ` ` ` ` $ { b c c c c c *.h = ` ` ` ` ` ` ` ` $ h S F &.*.,.M q.& P ` ` ` ` ` _ .   ",
"      . ) ` ` ` ` ` = { b c c c c c d.X Q ` ` ` ` ` ` ` ` R O ;.c c c c c >.3 y ` ` ` ` ` ` .   ",
"      . ` ` ` ` ` ` : ] m c c c c N 5.. ` ` ` ` ` ` ` ` ` _ . 3.c c c c c &.5 w ` ` ` ` ` _ .   ",
"      X ` ` ` ` ` ` < k S c c c c V +.+ ` ` ` ` ` ` ` ` ` Q O 2.c c c c c *.3 t ` ` ` ` ` ^ .   ",
"      + ` ` ` ` ` ` t 4 >.M *.;.%.b 9.. ` ` ` ` ` ` ` ` ` - f L c c c c c ;.& a ` ` ` ` ` P .   ",
"      + ` ` ` ` ` ` ~ O j.n x.v.x.V 2.& 8 ` ` ` ` ` ` ` 7 O 0.v c c c c c p.. ^ ` ` ` ` ` 9 .   ",
"      + ` ` ` ` ` ` ` . r.C ,.v.b.:.B 7.O + u ~ ( W q . & 8.B c c c c c C 5.. ` ` ` ` ` ` +     ",
"      X ` ` ` ` ` ` ` - l >.C v.v.b.$.V q.x ; O . @ 5 X.*.M >.j.=.B c c *.g : ` ` ` ` ` ( .     ",
"      . ` ` ` ` ` ` ` W X l.B :.v.v.v.*.n S *.>.>.&.D m J p.v.v.v.v.%.N x.. E ` ` ` ` ` w .     ",
"      . _ ` ` ` ` ` ` ` # z 3.m p.v.v.b.M c c c c c M k.v.v.v.v.v.d.M 3.g $ ` ` ` ` ` ` .       ",
"      . Y ` ` ` ` ` ` ` ~ . 6.=.M e.v.=.c c c c c c c v.v.v.v.v.g.B =.+.. ^ ` ` ` ` ` t .       ",
"      . 0 ` ` ` ` ` ` ` ` r O u.=.m ;.C c c c c c c v v.v.v.v.2.M *.4.. P ` ` ` ` ` ` .         ",
"        o ` ` ` ` ` ` ` ` ` 8 O r.3.B c c c c c c c v c.c.2.A B 3.[ . i ` ` ` ` ` ` < .         ",
"        . ^ ` ` ` ` ` ` ` ` ` w . l u.;.Z c c c c c v S m C =...& X Q ` ` ` ` ` ` I .           ",
"          - ` ` ` ` ` ` ` ` ` ` ~ = . 4 { 7.2.&.$.$.&.-.| d O . y ` ` ` ` ` ` ` ( .             ",
"          . ^ ` ` ` ` ` ` ` ` ` ` ` / q # . . X O O . . + 7 E ` ` ` ` ` ` ` ` _ o               ",
"            + ` ` ` ` ` ` ` ` ` ` ` ` ` ` ` _ ( ( ( ` ` ` ` ` ` ` ` ` ` ` ` ` + .               ",
"            . w ` ` ` ` ` ` ` ` ` ` ` ` ` ` ` ` ` ` ` ` ` ` ` ` ` ` ` ` ` ) + .                 ",
"              . u ` ` ` ` ` ` ` ` ` ` ` ` ` ` ` ` ` ` ` ` ` ` ` ` ` ` ` ~ X .                   ",
"                . t ` ` ` ` ` ` ` ` ` ` ` ` ` ` ` ` ` ` ` ` ` ` ` ` ` i .                       ",
"                  . * / ` ` ` ` ` ` ` ` ` ` ` ` ` ` ` ` ` ` ` ` ` ! # .                         ",
"                      . , ^ ` ` ` ` ` ` ` ` ` ` ` ` ` ` ` ` ` a $ .                             ",
"                        . . o 9 I _ ` ` ` ` ` ` ` ` ` ( p , . .                                 ",
"                              . . . X + = > < > = + . . .                                       ",
"                                                                                                ",
"                                                                                                ",
"                                                                                                ",
"                                                                                                "
};
